<svg width="80" height="80" viewBox="0 0 80 80" fill="none" xmlns="http://www.w3.org/2000/svg">
<path d="M40.773 72.1665C35.1853 72.1685 29.7226 70.5243 25.0759 67.4418C20.4291 64.3593 16.807 59.9771 14.6678 54.8494C12.5285 49.7217 11.9683 44.079 13.0579 38.635C14.1475 33.191 16.838 28.1903 20.789 24.2654C24.7401 20.3406 29.7742 17.6679 35.2546 16.5856C40.7349 15.5032 46.4153 16.0597 51.5772 18.1847C56.7391 20.3098 61.1506 23.9078 64.2537 28.5238C67.3568 33.1397 69.012 38.5662 69.01 44.1168C69.0019 51.5536 66.0244 58.6835 60.7307 63.9421C55.4369 69.2007 48.2594 72.1585 40.773 72.1665V72.1665ZM40.773 30.8428C38.1179 30.8428 35.5226 31.6256 33.3157 33.0919C31.1088 34.5582 29.3896 36.6422 28.3759 39.0799C27.3621 41.5175 27.0995 44.1992 27.6212 46.7852C28.1429 49.3713 29.4254 51.7453 31.3064 53.6068C33.1873 55.4682 35.5821 56.7332 38.1874 57.2416C40.7927 57.7501 43.4912 57.479 45.9413 56.4628C48.3913 55.4466 50.4827 53.7309 51.9505 51.5331C53.4182 49.3353 54.1964 46.7542 54.1863 44.1168C54.1836 40.5838 52.7696 37.1962 50.2547 34.698C47.7398 32.1997 44.3296 30.7951 40.773 30.7924V30.8428Z" fill="url(#paint0_linear_532_4878)"/>
<path d="M12.5357 44.1168C12.5357 44.1168 40.8032 40.9016 54.1862 68.7901C54.1862 68.7901 39.7582 77.6192 23.9909 66.6533C11.2573 56.8465 12.5357 44.1168 12.5357 44.1168Z" fill="url(#paint1_linear_532_4878)"/>
<path d="M15.2344 7.5C15.2344 7.5 22.2049 16.8533 40.7421 16.1074C44.4739 16.0362 48.1818 16.7139 51.6438 18.0998C55.1058 19.4858 58.2506 21.5515 60.8899 24.1733C63.5292 26.7951 65.6087 29.919 67.0039 33.358C68.3991 36.797 69.0813 40.4803 69.0096 44.1874C69.0096 62.3295 53.9931 72.4084 40.7421 72.2673C40.7421 72.2673 63.0639 65.6152 56.1441 46.8583C49.407 28.434 15.2344 43.0081 15.2344 7.5Z" fill="url(#paint2_linear_532_4878)"/>
<defs>
<linearGradient id="paint0_linear_532_4878" x1="12.5359" y1="44.1168" x2="69.01" y2="44.1168" gradientUnits="userSpaceOnUse">
<stop stop-color="#00AEEF"/>
<stop offset="1" stop-color="#006F9F"/>
</linearGradient>
<linearGradient id="paint1_linear_532_4878" x1="12.4952" y1="58.0761" x2="54.1862" y2="58.0761" gradientUnits="userSpaceOnUse">
<stop stop-color="#F7B9D4"/>
<stop offset="1" stop-color="#863D97"/>
</linearGradient>
<linearGradient id="paint2_linear_532_4878" x1="15.2344" y1="39.8837" x2="69.0096" y2="39.8837" gradientUnits="userSpaceOnUse">
<stop stop-color="#4F54A4"/>
<stop offset="1" stop-color="#C87AB3"/>
</linearGradient>
</defs>
</svg>